<svg width="490" height="500" viewBox="0 0 490 500" fill="none" xmlns="http://www.w3.org/2000/svg">
<path d="M490.001 255.682C490.001 237.955 488.41 220.91 485.455 204.546H250V301.251H384.546C378.751 332.501 361.137 358.978 334.66 376.705V439.433H415.455C462.728 395.91 490.001 331.819 490.001 255.682Z" fill="#4285F4"/>
<path d="M249.999 500C317.499 500 374.09 477.614 415.453 439.432L334.658 376.705C312.272 391.705 283.635 400.568 249.999 400.568C184.885 400.568 129.771 356.591 110.112 297.5H26.5892V362.273C67.7257 443.978 152.271 500 249.999 500Z" fill="#34A853"/>
<path d="M110.114 297.502C105.114 282.502 102.273 266.479 102.273 250.002C102.273 233.525 105.114 217.502 110.114 202.502V137.729H26.591C9.09092 172.567 -0.0154233 211.016 1.96088e-05 250.002C1.96088e-05 290.343 9.65913 328.525 26.591 362.275L110.114 297.502Z" fill="#FBBC05"/>
<path d="M249.999 99.432C286.703 99.432 319.658 112.046 345.567 136.818L417.272 65.1137C373.976 24.7728 317.385 0 249.999 0C152.271 0 67.7257 56.0228 26.5892 137.727L110.112 202.5C129.771 143.409 184.885 99.432 249.999 99.432Z" fill="#EA4335"/>
</svg>
